<?xml version="1.0" encoding="utf-8"?>
<!-- Generator: Adobe Illustrator 27.0.0, SVG Export Plug-In . SVG Version: 6.00 Build 0)  -->
<svg version="1.1" id="Layer_1" xmlns="http://www.w3.org/2000/svg" xmlns:xlink="http://www.w3.org/1999/xlink" x="0px" y="0px"
	 viewBox="0 0 500 70" style="enable-background:new 0 0 500 70;" xml:space="preserve">
<style type="text/css">
	.st0{fill:#E9525B;}
	.st1{fill:#FFFFFF;}
</style>
<g>
	<g>
		<path d="M213.08,66.77c0,0-0.35-2.25-2.25-5.2s0.35-2.95-1.04-4.33c-1.39-1.39-0.17-1.21-0.35-2.77c-0.17-1.56-1-1.22-0.33-2.69
			c0.67-1.47-0.71-3.55,0.15-3.89c0.87-0.35-1.35-2.21-0.41-2.75c0.93-0.54-0.45-3.49,0.76-4.7s-0.47-3.24,1.24-4.56
			c1.17-1.81,1.02-6,4.43-9.26c0.15-0.14,0.29-0.28,0.43-0.43c7.34-7.7,21.35-14.24,29.42-22.3c0,0,1.73-1.21,1.91-1.91
			c0.17-0.69,0.52-0.35,0.52-0.35s0.52-0.17,0.52-0.87s0.35,0.52,0.35,0.52s0.52-0.69,0.69-1.21s0.35,1.91,1.21,3.64
			s3.98,7.45,8.32,12.47c4.33,5.02,7.45,9.18,9.18,14.38s3.12,9.01,3.12,13.51c0.17,2.77,0.69-0.35,0.52,5.2l0.03,1.56
			c0,0-1.94-1.39-3.15,1.91s-3.29,5.37-3.29,5.37s-1.48,2.43-1.26,8.66c0.22,6.24-0.99-6.58-4.63-10.57
			c-3.64-3.98-4.5-3.81-4.5-3.81s-4.16-1.73-4.85-5.54c-0.69-3.81-8.66-7.8-15.76-4.85c-7.1,2.95-5.54,5.37-12.99,1.73
			c-9.35-0.69-8.66,13.34-8.66,13.34l1.04,10.39L213.08,66.77z"/>
		<path d="M250.63,57.36c-0.09-1.04-0.7-2.85-3.59-4.34c-0.4-0.21-0.9-0.03-1.07,0.39c-2.87,6.84-10.51,11.29-13.66,12.88
			c-0.91,0.46-1.94,0.66-2.96,0.57c-8.62-0.76-11.85-5.59-12.89-7.81c-0.18-0.38-0.71-0.39-0.91-0.02
			c-0.75,1.42-1.83,2.77-1.43,4.59c0.15,0.68,0.66,1.23,1.33,1.44c7.08,2.18,12.95,2.46,14.79,2.49c0.39,0.01,1.11-0.03,1.47-0.17
			c2.32-0.94,11.39-4.87,18.31-8.85C250.42,58.29,250.67,57.83,250.63,57.36z"/>
		<polygon class="st0" points="242.04,60.92 243.26,54.29 244.2,60.66 246.39,58.48 245.57,61.44 248.8,59.42 246.34,62.76 
			251.43,62.05 246.33,64.39 252.12,70 245.01,66.23 244.06,70 242.49,66.38 237.21,66.37 240.11,64.44 238.22,62.95 240.64,62.95 
			235.8,58.52 		"/>
	</g>
	<g>
		<path class="st1" d="M19.42,45.39l11.03,17.06h-8.26l-8.17-12.43l-5.13,4.54l-1.59,7.9H0l6.35-31.76h7.31l-2.9,14.57l16.47-14.57
			h8.89L19.42,45.39z"/>
		<path class="st1" d="M54.77,55.65H39.98l-4.13,6.81H28l20.56-31.76h7.26l7.8,31.76h-7.35L54.77,55.65z M53.54,50.07l-2.68-12.25
			l-7.49,12.25H53.54z"/>
		<path class="st1" d="M97.42,35.46L76.05,56.47h17.79l-1.23,5.99H64.84l0.95-4.76l21.42-21.01H70.47l1.22-5.99h26.68L97.42,35.46z"
			/>
		<path class="st1" d="M102.96,60.03c-2.27-1.98-3.4-4.7-3.4-8.14c0-1,0.12-2.13,0.36-3.4l3.54-17.79h7.4l-3.54,17.65
			c-0.18,1-0.27,1.89-0.27,2.68c0,1.91,0.52,3.34,1.57,4.29c1.04,0.95,2.56,1.43,4.56,1.43c2.24,0,4.02-0.67,5.35-2
			c1.33-1.33,2.3-3.46,2.9-6.4l3.54-17.65h7.21l-3.58,18.1c-1.94,9.47-7.35,14.2-16.24,14.2C108.36,63,105.23,62.01,102.96,60.03z"
			/>
		<path class="st1" d="M150.1,51.43l-2.18,11.03h-7.35l2.22-11.34l-8.17-20.42h7.35l5.67,14.16l11.39-14.16h7.58L150.1,51.43z"/>
		<path class="st1" d="M184,55.65H169.2l-4.13,6.81h-7.85l20.56-31.76h7.26l7.8,31.76h-7.35L184,55.65z M182.77,50.07l-2.68-12.25
			l-7.49,12.25H182.77z"/>
	</g>
	<g>
		<path class="st1" d="M328.62,30.69l-6.31,31.76h-6.9l3.72-18.88L307.02,59.1h-3.27l-6.53-15.7l-3.81,19.06h-6.9l6.35-31.76h5.99
			l7.94,19.78l15.52-19.78H328.62z"/>
		<path class="st1" d="M336.2,30.69h7.4l-6.35,31.76h-7.4L336.2,30.69z"/>
		<path class="st1" d="M348.58,62c-2.3-0.66-4.14-1.51-5.54-2.54l2.99-5.67c1.45,1.06,3.09,1.88,4.9,2.45
			c1.81,0.57,3.68,0.86,5.58,0.86c2.03,0,3.63-0.33,4.81-1c1.18-0.66,1.77-1.57,1.77-2.72c0-0.94-0.47-1.66-1.41-2.16
			c-0.94-0.5-2.44-1.04-4.49-1.61c-2.06-0.6-3.74-1.19-5.04-1.75c-1.3-0.56-2.43-1.4-3.38-2.52c-0.95-1.12-1.43-2.6-1.43-4.45
			c0-2.15,0.6-4.04,1.79-5.67c1.19-1.63,2.89-2.89,5.08-3.77c2.19-0.88,4.74-1.32,7.65-1.32c2.15,0,4.17,0.23,6.08,0.7
			c1.91,0.47,3.54,1.14,4.9,2.02l-2.77,5.63c-1.18-0.82-2.51-1.43-3.99-1.84c-1.48-0.41-3.02-0.61-4.63-0.61
			c-2.09,0-3.74,0.36-4.95,1.09c-1.21,0.73-1.81,1.66-1.81,2.81c0,0.7,0.26,1.28,0.77,1.75c0.51,0.47,1.16,0.85,1.95,1.13
			c0.79,0.29,1.89,0.63,3.31,1.02c2.03,0.54,3.69,1.1,4.99,1.66c1.3,0.56,2.41,1.38,3.34,2.45c0.92,1.07,1.38,2.49,1.38,4.24
			c0,2.18-0.61,4.08-1.81,5.69c-1.21,1.62-2.92,2.87-5.13,3.77c-2.21,0.89-4.78,1.34-7.71,1.34C353.29,63,350.88,62.67,348.58,62z"
			/>
		<path class="st1" d="M409.16,30.69l-6.35,31.76h-7.35l2.59-12.93h-14.38l-2.59,12.93h-7.4l6.35-31.76h7.4l-2.5,12.48h14.38
			l2.5-12.48H409.16z"/>
		<path class="st1" d="M416.69,30.69h7.4l-6.35,31.76h-7.4L416.69,30.69z"/>
		<path class="st1" d="M467.33,30.69l-6.31,31.76h-6.9l3.72-18.88L445.73,59.1h-3.27l-6.53-15.7l-3.81,19.06h-6.9l6.35-31.76h5.99
			l7.94,19.78l15.52-19.78H467.33z"/>
		<path class="st1" d="M491.15,55.65h-14.79l-4.13,6.81h-7.85l20.56-31.76h7.26l7.8,31.76h-7.35L491.15,55.65z M489.93,50.07
			l-2.68-12.25l-7.49,12.25H489.93z"/>
	</g>
</g>
</svg>
