<?xml version="1.0" standalone="no"?>
<!DOCTYPE svg PUBLIC "-//W3C//DTD SVG 20010904//EN"
 "http://www.w3.org/TR/2001/REC-SVG-20010904/DTD/svg10.dtd">
<svg version="1.0" xmlns="http://www.w3.org/2000/svg"
 width="500.000000pt" height="500.000000pt" viewBox="0 0 500.000000 500.000000"
 preserveAspectRatio="xMidYMid meet">
<metadata>
Created by potrace 1.14, written by Peter Selinger 2001-2017
</metadata>
<g transform="translate(0.000000,500.000000) scale(0.100000,-0.100000)"
fill="#000000" stroke="none">
<path d="M2940 4225 c-14 -27 -30 -33 -31 -12 0 6 -4 1 -10 -11 -5 -13 -18
-26 -29 -29 -11 -3 -20 -11 -20 -18 0 -7 -37 -46 -82 -86 -46 -41 -87 -79 -93
-85 -19 -21 -146 -125 -223 -182 -103 -76 -144 -105 -437 -301 -228 -152 -484
-333 -517 -364 -7 -6 -29 -24 -49 -39 -64 -48 -236 -223 -268 -273 -34 -53
-66 -136 -105 -267 -15 -48 -32 -93 -40 -100 -29 -29 -40 -65 -38 -126 2 -52
-3 -72 -24 -108 -23 -39 -25 -52 -22 -125 3 -55 0 -86 -9 -97 -18 -25 -16 -48
9 -91 20 -36 21 -40 6 -55 -10 -9 -15 -26 -12 -39 14 -71 15 -123 3 -159 -10
-33 -10 -45 1 -71 14 -35 17 -86 7 -131 -5 -22 0 -36 23 -65 28 -34 29 -40 21
-89 -8 -52 -7 -54 50 -155 32 -56 70 -139 85 -184 14 -46 28 -83 30 -83 2 0 2
17 0 38 -3 20 -7 66 -11 102 -3 36 -8 81 -10 100 -3 19 -7 62 -10 95 -3 33 -8
89 -11 125 -24 242 37 496 150 618 42 46 108 85 164 97 47 10 121 8 135 -3 25
-21 170 -72 221 -78 45 -5 63 -2 110 19 30 14 75 38 98 54 36 24 105 59 203
104 65 30 171 47 273 44 59 -1 117 -6 130 -9 12 -3 31 -8 41 -10 45 -10 140
-54 194 -90 68 -45 112 -96 131 -151 8 -22 23 -62 32 -89 27 -74 110 -158 202
-203 92 -46 239 -181 291 -268 47 -78 93 -205 140 -385 22 -84 42 -154 45
-157 2 -2 5 56 5 129 2 156 4 181 25 271 19 81 22 88 86 172 27 36 66 100 86
143 62 133 68 143 98 159 17 9 41 13 57 9 l28 -5 3 112 c2 73 -1 124 -10 147
-7 19 -14 64 -16 100 -6 101 -16 181 -27 225 -6 22 -13 48 -15 59 -20 107
-135 436 -190 546 -86 170 -147 258 -344 495 -178 213 -280 358 -392 555 -64
114 -83 156 -103 234 -8 32 -16 61 -18 62 -2 2 -10 -7 -17 -21z"/>
<path d="M2819 1603 c-8 -2 -32 -37 -53 -78 -21 -41 -48 -87 -59 -102 l-21
-27 -7 25 c-4 13 -7 39 -8 57 -2 61 -18 32 -35 -65 -14 -80 -23 -103 -48 -132
-17 -20 -36 -39 -43 -43 -7 -4 -63 13 -126 37 -63 25 -117 45 -121 45 -5 0
109 -111 155 -151 16 -13 -177 -145 -318 -218 -99 -52 -173 -55 -334 -15 -198
50 -368 168 -452 314 -48 84 -64 81 -113 -21 -22 -44 -39 -95 -39 -114 0 -49
22 -94 54 -111 31 -15 322 -88 399 -99 140 -20 284 -33 350 -31 81 2 148 27
437 163 18 8 37 12 42 8 13 -8 15 -35 2 -35 -5 0 -35 -17 -67 -37 l-57 -38
130 -3 131 -3 31 -64 c17 -36 34 -77 37 -91 9 -37 19 -20 39 69 10 43 22 80
26 83 5 3 41 -13 81 -34 40 -22 118 -63 173 -91 l100 -53 -144 141 -144 140
104 49 c57 26 115 53 129 59 28 13 11 12 -147 -11 -55 -8 -80 -8 -75 -1 3 5
31 44 61 84 l55 75 -40 -24 c-21 -13 -59 -36 -82 -52 -24 -16 -42 -23 -40 -16
4 12 28 26 178 108 76 42 85 70 50 149 -32 70 -148 164 -191 154z"/>
</g>
</svg>
